<mxfile host="Electron" agent="Mozilla/5.0 (Windows NT 10.0; Win64; x64) AppleWebKit/537.36 (KHTML, like Gecko) draw.io/24.7.17 Chrome/128.0.6613.36 Electron/32.0.1 Safari/537.36" version="24.7.17">
  <diagram name="Page-1" id="AYU10W_wuZIJJQxBKckb">
    <mxGraphModel dx="1847" dy="1375" grid="1" gridSize="10" guides="1" tooltips="1" connect="1" arrows="1" fold="1" page="1" pageScale="1" pageWidth="1000" pageHeight="1000" math="0" shadow="0">
      <root>
        <mxCell id="0" />
        <mxCell id="1" parent="0" />
        <mxCell id="X9ErEhTLX7Dl1D5zabpE-2" value="&lt;b&gt;VPC A&lt;/b&gt;" style="rounded=0;whiteSpace=wrap;html=1;fontSize=14;verticalAlign=top;align=left;spacing=7.874;" vertex="1" parent="1">
          <mxGeometry x="80" y="120" width="80" height="80" as="geometry" />
        </mxCell>
        <mxCell id="X9ErEhTLX7Dl1D5zabpE-3" value="&lt;b&gt;VPC B&lt;/b&gt;" style="rounded=0;whiteSpace=wrap;html=1;fontSize=14;verticalAlign=top;align=left;spacing=7.874;" vertex="1" parent="1">
          <mxGeometry x="240" y="120" width="80" height="80" as="geometry" />
        </mxCell>
        <mxCell id="X9ErEhTLX7Dl1D5zabpE-9" value="&lt;b&gt;VPC C&lt;/b&gt;" style="rounded=0;whiteSpace=wrap;html=1;fontSize=14;verticalAlign=top;align=left;spacing=7.874;" vertex="1" parent="1">
          <mxGeometry x="80" y="280" width="80" height="80" as="geometry" />
        </mxCell>
        <mxCell id="X9ErEhTLX7Dl1D5zabpE-10" value="&lt;b&gt;VPC D&lt;/b&gt;" style="rounded=0;whiteSpace=wrap;html=1;fontSize=14;verticalAlign=top;align=left;spacing=7.874;" vertex="1" parent="1">
          <mxGeometry x="240" y="280" width="80" height="80" as="geometry" />
        </mxCell>
        <mxCell id="X9ErEhTLX7Dl1D5zabpE-14" value="" style="rounded=0;orthogonalLoop=1;jettySize=auto;html=1;startArrow=classic;startFill=1;entryX=0.5;entryY=1;entryDx=0;entryDy=0;exitX=0.5;exitY=0;exitDx=0;exitDy=0;edgeStyle=orthogonalEdgeStyle;" edge="1" parent="1" source="X9ErEhTLX7Dl1D5zabpE-10" target="X9ErEhTLX7Dl1D5zabpE-2">
          <mxGeometry relative="1" as="geometry">
            <mxPoint x="250" y="330" as="sourcePoint" />
            <mxPoint x="170" y="330" as="targetPoint" />
          </mxGeometry>
        </mxCell>
        <mxCell id="X9ErEhTLX7Dl1D5zabpE-15" value="" style="rounded=0;orthogonalLoop=1;jettySize=auto;html=1;startArrow=classic;startFill=1;entryX=0.5;entryY=1;entryDx=0;entryDy=0;exitX=0.5;exitY=0;exitDx=0;exitDy=0;edgeStyle=orthogonalEdgeStyle;" edge="1" parent="1" source="X9ErEhTLX7Dl1D5zabpE-9" target="X9ErEhTLX7Dl1D5zabpE-3">
          <mxGeometry relative="1" as="geometry">
            <mxPoint x="250" y="290" as="sourcePoint" />
            <mxPoint x="170" y="210" as="targetPoint" />
          </mxGeometry>
        </mxCell>
        <mxCell id="X9ErEhTLX7Dl1D5zabpE-16" value="&lt;b&gt;Corporate&lt;br&gt;Gateway&lt;/b&gt;" style="rounded=0;whiteSpace=wrap;html=1;fontSize=14;verticalAlign=top;align=left;spacing=7.874;" vertex="1" parent="1">
          <mxGeometry x="400" y="200" width="80" height="80" as="geometry" />
        </mxCell>
        <mxCell id="X9ErEhTLX7Dl1D5zabpE-17" value="" style="ellipse;whiteSpace=wrap;html=1;" vertex="1" parent="1">
          <mxGeometry x="180" y="220" width="40" height="40" as="geometry" />
        </mxCell>
        <mxCell id="X9ErEhTLX7Dl1D5zabpE-21" value="" style="rounded=0;orthogonalLoop=1;jettySize=auto;html=1;startArrow=none;startFill=0;entryX=0;entryY=0.5;entryDx=0;entryDy=0;exitX=1;exitY=0.5;exitDx=0;exitDy=0;edgeStyle=orthogonalEdgeStyle;" edge="1" parent="1" source="X9ErEhTLX7Dl1D5zabpE-17" target="X9ErEhTLX7Dl1D5zabpE-16">
          <mxGeometry relative="1" as="geometry">
            <mxPoint x="130" y="290" as="sourcePoint" />
            <mxPoint x="290" y="210" as="targetPoint" />
          </mxGeometry>
        </mxCell>
      </root>
    </mxGraphModel>
  </diagram>
</mxfile>
